<svg width="320" height="538" viewBox="0 0 320 538" fill="none" xmlns="http://www.w3.org/2000/svg">
<rect width="320" height="538" fill="white"/>
<path fill-rule="evenodd" clip-rule="evenodd" d="M67.6147 133.351C65.1152 139.858 65.9249 148.201 60.3797 152.426C54.7949 156.68 46.826 155.767 39.9321 154.439C33.8505 153.268 28.8734 149.508 24.1894 145.456C19.786 141.647 16.1719 137.244 13.8714 131.895C11.3079 125.935 9.24989 119.638 10.3331 113.241C11.5499 106.055 14.3504 98.6532 20.2297 94.3457C26.1719 89.9922 34.3536 88.4219 41.4337 90.455C47.946 92.3251 49.8644 100.654 55.4667 104.465C61.6325 108.658 72.4368 106.635 75.3276 113.509C78.1474 120.214 70.2229 126.56 67.6147 133.351Z" fill="#F5F5F5"/>
</svg>
