<svg width="304" height="260" viewBox="0 0 304 260" fill="none" xmlns="http://www.w3.org/2000/svg">
<g clip-path="url(#clip0)">
<g opacity="0.5">
<path opacity="0.5" d="M167.841 0.00854079L139.452 188.157L275.632 208.702L304.021 20.5541L167.841 0.00854079Z" fill="url(#paint0_linear)"/>
</g>
<path d="M169.367 1.65653L141.605 185.645L274.32 205.668L302.081 21.6793L169.367 1.65653Z" fill="#F5F5F5"/>
<path d="M270.785 98.5647L174.999 84.1134L174.123 89.919L269.909 104.37L270.785 98.5647Z" fill="#E0E0E0"/>
<path d="M268.596 113.075L172.81 98.6241L171.934 104.43L267.72 118.881L268.596 113.075Z" fill="#E0E0E0"/>
<path d="M277.79 52.1243L228.445 44.6795L227.569 50.4851L276.914 57.9299L277.79 52.1243Z" fill="#E0E0E0"/>
<path d="M271.249 65.9819L230.611 59.8508L229.735 65.6564L270.373 71.7875L271.249 65.9819Z" fill="#6EE06C"/>
<path d="M254.795 125.837L170.618 113.137L169.742 118.943L253.92 131.643L254.795 125.837Z" fill="#E0E0E0"/>
<path d="M240.992 138.598L168.427 127.65L167.551 133.456L240.116 144.404L240.992 138.598Z" fill="#E0E0E0"/>
<path d="M230.096 151.796L166.237 142.162L165.361 147.968L229.22 157.602L230.096 151.796Z" fill="#E0E0E0"/>
<path d="M245.32 168.936L164.048 156.675L163.172 162.48L244.444 174.742L245.32 168.936Z" fill="#E0E0E0"/>
<path d="M193.788 176.003L161.861 171.186L160.985 176.991L192.912 181.808L193.788 176.003Z" fill="#6EE06C"/>
<g opacity="0.5">
<path opacity="0.5" d="M219.093 52.6647C219.597 49.3201 219.226 45.9021 218.017 42.7431C216.809 39.5842 214.803 36.792 212.194 34.6383C209.586 32.4846 206.465 31.0427 203.134 30.453C199.804 29.8633 196.377 30.1459 193.188 31.2732C189.999 32.4006 187.156 34.3343 184.936 36.8861C182.716 39.438 181.194 42.5211 180.52 45.8354C179.845 49.1496 180.039 52.5822 181.084 55.799C182.13 59.0157 183.99 61.9072 186.484 64.1918C186.484 64.2196 186.484 64.2509 186.484 64.2787C187.024 64.9838 187.699 65.5746 188.469 66.0168L188.507 65.9334C189.296 66.8476 192.929 68.6692 197.32 69.3192H197.417C200.198 69.7433 203.289 69.7051 206.157 68.6692C206.157 68.6692 206.188 68.6205 206.24 68.5301C206.961 68.3152 207.642 67.9853 208.257 67.5533L208.319 67.3378C211.169 65.9477 213.639 63.8859 215.516 61.3299C217.392 58.7739 218.62 55.8002 219.093 52.6647Z" fill="url(#paint1_linear)"/>
</g>
<path d="M218.424 51.8636C219.99 41.4852 212.846 31.8025 202.467 30.2366C192.088 28.6707 182.405 35.8147 180.839 46.1931C179.273 56.5715 186.417 66.2543 196.796 67.8201C207.175 69.386 216.858 62.2421 218.424 51.8636Z" fill="#F5F5F5"/>
<path d="M190.969 55.2892C190.969 55.2892 186.449 54.9798 186.39 63.3158C186.915 63.9973 187.57 64.5679 188.316 64.9948L192.119 56.85L190.969 55.2892Z" fill="#FDA57D"/>
<path d="M205.5 57.4827C205.5 57.4827 209.922 58.5256 207.509 66.5035C206.807 67.0023 206.013 67.3568 205.173 67.5463L203.939 58.6438L205.5 57.4827Z" fill="#FDA57D"/>
<path d="M193.18 41.9544C193.18 41.9544 190.113 47.8327 189.039 47.0749C189.039 47.0749 198.794 58.4526 210.158 50.2591C209.274 48.0446 208.128 45.9439 206.744 44.0019L193.18 41.9544Z" fill="#333333"/>
<path d="M208.803 43.7215C209.497 39.1217 206.33 34.8303 201.73 34.1363C197.13 33.4423 192.839 36.6085 192.145 41.2083C191.451 45.808 194.617 50.0995 199.217 50.7935C203.817 51.4875 208.109 48.3213 208.803 43.7215Z" fill="#333333"/>
<path opacity="0.1" d="M205.413 57.4688L190.882 55.2787L188.65 60.8859C188.65 60.8859 187.447 63.4548 188.26 64.7897C189.074 66.1245 197.921 70.2091 205.295 67.5706C206.122 66.1103 206.447 64.4189 206.219 62.7561C205.854 59.9264 206.056 62.5336 206.056 62.5336L205.413 57.4688Z" fill="#121212"/>
<path opacity="0.1" d="M205.608 57.5001L191.076 55.3101L188.848 60.9137C188.848 60.9137 187.645 63.4826 188.459 64.8175C189.272 66.1524 198.12 70.2369 205.493 67.5985C206.32 66.1381 206.645 64.4467 206.418 62.7839C206.053 59.9543 206.254 62.5614 206.254 62.5614L205.608 57.5001Z" fill="#121212"/>
<path d="M205.5 57.4827L190.969 55.2927L188.737 60.8998C188.737 60.8998 187.534 63.4687 188.347 64.8036C189.161 66.1385 198.008 70.223 205.382 67.5846C206.209 66.1242 206.534 64.4328 206.306 62.77C205.941 59.9404 206.143 62.5475 206.143 62.5475L205.5 57.4827Z" fill="#FDD835"/>
<path opacity="0.1" d="M196.149 51.1576L201.962 52.0345L201.17 57.2799C201.078 57.8934 200.745 58.445 200.246 58.8134C199.747 59.1818 199.121 59.3367 198.508 59.2442L197.318 59.0647C196.705 58.9721 196.153 58.6396 195.785 58.1404C195.416 57.6411 195.261 57.0159 195.354 56.4024L196.145 51.157L196.149 51.1576Z" fill="#121212"/>
<path d="M196.177 50.9421L201.99 51.8191L201.198 57.0645C201.106 57.678 200.773 58.2296 200.274 58.598C199.775 58.9664 199.15 59.1213 198.536 59.0287L197.35 58.8498C196.736 58.7573 196.185 58.4248 195.816 57.9255C195.448 57.4262 195.293 56.801 195.386 56.1875L196.177 50.9421Z" fill="#FDA57D"/>
<path opacity="0.1" d="M196.068 51.7643C197.836 52.7469 199.897 53.0639 201.878 52.6577L201.985 51.9451L196.173 51.0691L196.068 51.7643Z" fill="#121212"/>
<path d="M208.53 45.5281C209.224 40.9284 206.058 36.6369 201.458 35.9429C196.858 35.2489 192.566 38.4151 191.872 43.0149C191.178 47.6147 194.344 51.9061 198.944 52.6001C203.544 53.2941 207.836 50.1279 208.53 45.5281Z" fill="#FDA57D"/>
<path d="M192.696 39.9L208.583 42.2951C208.583 42.2951 208.194 35.6903 202.128 35.1793C196.061 34.6683 192.696 39.9 192.696 39.9Z" fill="#333333"/>
<path d="M192.869 42.7991C192.99 41.9961 192.742 41.2929 192.315 41.2285C191.887 41.164 191.443 41.7628 191.322 42.5658C191.201 43.3688 191.449 44.072 191.876 44.1364C192.303 44.2009 192.748 43.6022 192.869 42.7991Z" fill="#FDA57D"/>
<path d="M209.143 45.2558C209.264 44.4528 209.016 43.7496 208.589 43.6852C208.162 43.6207 207.718 44.2194 207.596 45.0225C207.475 45.8255 207.723 46.5287 208.15 46.5931C208.578 46.6576 209.022 46.0589 209.143 45.2558Z" fill="#FDA57D"/>
<path opacity="0.1" d="M192.672 40.1155L208.559 42.5106C208.559 42.5106 208.17 35.9058 202.104 35.3948C196.037 34.8838 192.672 40.1155 192.672 40.1155Z" fill="#121212"/>
<g opacity="0.5">
<path opacity="0.5" d="M136.458 27.0418L0.114136 49.076L30.5601 237.451L166.904 215.417L136.458 27.0418Z" fill="url(#paint2_linear)"/>
</g>
<path d="M134.408 28.1416L1.95901 49.8535L32.0624 233.474L164.511 211.762L134.408 28.1416Z" fill="#F5F5F5"/>
<path d="M128.268 110.906L32.6743 126.577L33.6242 132.371L129.218 116.7L128.268 110.906Z" fill="#E0E0E0"/>
<path d="M130.642 125.39L35.0485 141.061L35.9984 146.855L131.592 131.184L130.642 125.39Z" fill="#E0E0E0"/>
<path d="M120.673 64.5603L71.4268 72.6331L72.3767 78.4271L121.623 70.3543L120.673 64.5603Z" fill="#E0E0E0"/>
<path d="M118.701 79.757L78.1442 86.4053L79.0941 92.1993L119.651 85.5509L118.701 79.757Z" fill="#6EE06C"/>
<path d="M121.431 141.773L37.4229 155.544L38.3727 161.338L122.381 147.567L121.431 141.773Z" fill="#E0E0E0"/>
<path d="M112.217 158.153L39.7967 170.024L40.7466 175.818L113.167 163.947L112.217 158.153Z" fill="#E0E0E0"/>
<path d="M105.902 174.063L42.1713 184.51L43.1212 190.304L106.851 179.857L105.902 174.063Z" fill="#E0E0E0"/>
<path d="M125.656 185.694L44.546 198.991L45.4959 204.784L126.606 191.488L125.656 185.694Z" fill="#E0E0E0"/>
<path d="M78.7861 208.253L46.9227 213.476L47.8726 219.27L79.736 214.046L78.7861 208.253Z" fill="#6EE06C"/>
<g opacity="0.5">
<path opacity="0.5" d="M66.7606 81.851C66.1976 78.4198 64.7559 75.1928 62.5757 72.484C60.3956 69.7752 57.5513 67.677 54.3196 66.3934C51.088 65.1099 47.579 64.6848 44.1344 65.1595C40.6897 65.6342 37.4265 66.9925 34.6626 69.1023C31.8986 71.212 29.7279 74.0014 28.3617 77.1989C26.9955 80.3963 26.4804 83.893 26.8665 87.3485C27.2527 90.8041 28.5268 94.1009 30.565 96.918C32.6032 99.7351 35.3361 101.977 38.4976 103.424L38.5254 103.511C39.2766 104.027 40.1226 104.388 41.0145 104.575V104.481C42.0748 105.128 46.2047 105.764 50.7067 105.013H50.804C53.6581 104.551 56.6687 103.536 59.1473 101.617C59.1473 101.617 59.1473 101.561 59.1821 101.457C59.8193 101.019 60.3816 100.482 60.8473 99.8647C60.8473 99.7859 60.8473 99.7094 60.8473 99.6353C63.2021 97.3732 64.971 94.572 66.0012 91.4736C67.0314 88.3752 67.2921 85.0726 66.7606 81.851Z" fill="url(#paint3_linear)"/>
</g>
<path d="M50.0492 104.382C60.6972 102.636 67.914 92.5896 66.1684 81.9421C64.4229 71.2946 54.3759 64.0781 43.7278 65.8237C33.0798 67.5692 25.8629 77.6157 27.6085 88.2631C29.3541 98.9106 39.4011 106.127 50.0492 104.382Z" fill="#F5F5F5"/>
<path d="M39.7768 94.0142C39.7768 94.0142 35.2575 95.144 37.8301 103.313C38.5584 103.817 39.3797 104.172 40.2462 104.356L41.3968 95.1857L39.7768 94.0142Z" fill="#4D8AF0"/>
<path d="M54.6837 91.5704C54.6837 91.5704 59.3386 91.1915 59.495 99.7639C58.9635 100.466 58.2983 101.057 57.5378 101.502L53.5191 93.1799L54.6837 91.5704Z" fill="#4D8AF0"/>
<path d="M46.4114 87.0032C51.1311 86.2295 54.3298 81.7765 53.5561 77.0571C52.7824 72.3378 48.3292 69.1391 43.6096 69.9128C38.89 70.6865 35.6912 75.1395 36.4649 79.8588C37.2386 84.5782 41.6918 87.7768 46.4114 87.0032Z" fill="#333333"/>
<path d="M54.5967 91.5844L39.6899 94.0177L39.2762 100.209C39.2762 100.209 38.9286 103.105 40.128 104.151C41.3273 105.197 51.2941 106.403 57.6525 101.481C58.0005 99.7913 57.7843 98.034 57.0371 96.4789C55.7856 93.8265 56.8042 96.312 56.8042 96.312L54.5967 91.5844Z" fill="#4D8AF0"/>
<path d="M54.7949 91.5531L39.8881 93.9864L39.4744 100.178C39.4744 100.178 39.1268 103.073 40.3261 104.12C41.5255 105.166 51.4923 106.372 57.8506 101.45C58.1986 99.76 57.9825 98.0027 57.2353 96.4476C55.9838 93.7952 57.0024 96.2807 57.0024 96.2807L54.7949 91.5531Z" fill="#4D8AF0"/>
<path d="M54.6836 91.5704L39.7769 94.0038L39.3632 100.205C39.3632 100.205 39.0155 103.101 40.2149 104.147C41.4142 105.194 51.381 106.4 57.7393 101.478C58.0874 99.7878 57.8712 98.0305 57.124 96.4754C55.8725 93.823 56.8911 96.3085 56.8911 96.3085L54.6836 91.5704Z" fill="#4D8AF0"/>
<path opacity="0.1" d="M43.543 88.3141L49.5054 87.3367L50.398 92.7808C50.4983 93.3931 50.3514 94.0202 49.9894 94.5241C49.6274 95.0281 49.08 95.3676 48.4677 95.468L47.1194 95.689C46.5071 95.7894 45.88 95.6424 45.376 95.2804C44.872 94.9184 44.5325 94.3711 44.4321 93.7588L43.5396 88.3147L43.543 88.3141Z" fill="#121212"/>
<path d="M43.5075 88.0932L49.4699 87.1159L50.3624 92.5599C50.4628 93.1722 50.3158 93.7993 49.9538 94.3033C49.5918 94.8072 49.0444 95.1467 48.4321 95.2471L47.0838 95.4681C46.4715 95.5685 45.8444 95.4215 45.3404 95.0595C44.8365 94.6975 44.4969 94.1502 44.3966 93.5379L43.504 88.0938L43.5075 88.0932Z" fill="#FDA57D"/>
<path opacity="0.1" d="M43.653 88.9529C45.6923 89.3568 47.8088 89.0164 49.6185 87.9934L49.4969 87.2599L43.5349 88.2402L43.653 88.9529Z" fill="#121212"/>
<path d="M46.7182 88.8585C51.4378 88.0848 54.6366 83.6318 53.8629 78.9125C53.0892 74.1931 48.636 70.9945 43.9163 71.7681C39.1967 72.5418 35.9979 76.9948 36.7717 81.7142C37.5454 86.4336 41.9986 89.6322 46.7182 88.8585Z" fill="#FDA57D"/>
<path opacity="0.1" d="M36.6447 78.6285L52.9455 75.9588C52.9455 75.9588 50.4737 69.6042 44.3831 71.0364C38.2925 72.4686 36.6447 78.6285 36.6447 78.6285Z" fill="#121212"/>
<path d="M36.6064 78.4095L52.9211 75.7363C52.9211 75.7363 50.4494 69.3818 44.3588 70.814C38.2681 72.2462 36.6064 78.4095 36.6064 78.4095Z" fill="#333333"/>
<path d="M37.233 83.3246C37.674 83.2533 37.9232 82.5253 37.7895 81.6985C37.6559 80.8717 37.1901 80.2592 36.7491 80.3305C36.3081 80.4018 36.059 81.1298 36.1926 81.9566C36.3262 82.7834 36.792 83.3959 37.233 83.3246Z" fill="#FDA57D"/>
<path d="M53.8257 80.0739C54.2653 80.0019 54.5121 79.2754 54.377 78.4512C54.2419 77.6271 53.776 77.0174 53.3364 77.0894C52.8969 77.1615 52.6501 77.888 52.7852 78.7122C52.9203 79.5363 53.3862 80.146 53.8257 80.0739Z" fill="#FDA57D"/>
<g opacity="0.5">
<path opacity="0.5" d="M235.974 57.5209H98.2533V247.798H235.974V57.5209Z" fill="url(#paint4_linear)"/>
</g>
<path d="M234.222 58.9218H100.005V244.993H234.222V58.9218Z" fill="white"/>
<g opacity="0.5">
<path opacity="0.5" d="M117.93 101.495C117.93 97.9399 118.851 94.4453 120.602 91.3515C122.354 88.2578 124.877 85.6701 127.925 83.8405C130.974 82.0109 134.444 81.0016 137.998 80.9108C141.552 80.8201 145.069 81.651 148.207 83.3226C151.345 84.9943 153.997 87.4498 155.904 90.4502C157.811 93.4505 158.909 96.8935 159.091 100.444C159.273 103.995 158.532 107.532 156.942 110.711C155.351 113.891 152.964 116.604 150.013 118.588V118.678C149.341 119.323 148.547 119.829 147.677 120.166L147.649 120.075C146.686 120.903 142.626 122.227 137.961 122.213H137.86C134.905 122.213 131.7 121.692 128.877 120.166C128.877 120.166 128.852 120.11 128.814 120.009C128.099 119.673 127.443 119.224 126.871 118.678L126.84 118.445C124.091 116.554 121.844 114.023 120.292 111.07C118.74 108.117 117.929 104.831 117.93 101.495Z" fill="url(#paint5_linear)"/>
</g>
<path d="M138.52 121.469C149.552 121.469 158.496 112.527 158.496 101.495C158.496 90.4636 149.552 81.5208 138.52 81.5208C127.488 81.5208 118.545 90.4636 118.545 101.495C118.545 112.527 127.488 121.469 138.52 121.469Z" fill="#F5F5F5"/>
<path d="M130.685 109.104C130.685 109.104 125.925 109.49 127.184 118.181C127.836 118.807 128.607 119.297 129.45 119.623L132.127 110.561L130.685 109.104Z" fill="#BE7C5E"/>
<path d="M146.13 109.104C146.13 109.104 150.889 109.49 149.631 118.181C148.978 118.807 148.208 119.297 147.364 119.623L144.698 110.533L146.13 109.104Z" fill="#BE7C5E"/>
<path d="M130.89 94.8902C130.89 94.8902 130.525 95.9574 130.003 97.1915C128.87 99.889 130.163 110.255 132.875 111.361C135.916 112.602 139.918 113.394 144.072 111.878C147.684 110.561 148.796 98.7627 146.245 95.8879C145.946 95.5403 145.633 95.217 145.306 94.8902H130.89Z" fill="#333333"/>
<path d="M138.534 103.129C143.424 103.129 147.389 99.1648 147.389 94.2749C147.389 89.3851 143.424 85.421 138.534 85.421C133.644 85.421 129.68 89.3851 129.68 94.2749C129.68 99.1648 133.644 103.129 138.534 103.129Z" fill="#333333"/>
<path opacity="0.1" d="M146.04 109.104H130.594L129.151 115.282C129.151 115.282 128.303 118.143 129.357 119.401C130.41 120.659 140.248 123.52 147.479 119.606C148.109 117.959 148.181 116.15 147.684 114.458C146.86 111.576 147.479 114.253 147.479 114.253L146.04 109.104Z" fill="#121212"/>
<path opacity="0.1" d="M146.245 109.104H130.792L129.35 115.282C129.35 115.282 128.501 118.143 129.555 119.401C130.608 120.659 140.446 123.52 147.677 119.606C148.307 117.959 148.379 116.15 147.882 114.458C147.058 111.576 147.677 114.253 147.677 114.253L146.245 109.104Z" fill="#121212"/>
<path d="M146.13 109.104H130.684L129.242 115.282C129.242 115.282 128.394 118.143 129.447 119.401C130.5 120.659 140.338 123.52 147.569 119.606C148.199 117.959 148.271 116.15 147.774 114.458C146.95 111.576 147.569 114.253 147.569 114.253L146.13 109.104Z" fill="#3AD29F"/>
<path opacity="0.1" d="M135.423 103.977H141.6V109.671C141.6 110.292 141.354 110.887 140.915 111.325C140.476 111.764 139.881 112.011 139.261 112.011H137.759C137.138 112.011 136.543 111.764 136.105 111.325C135.666 110.887 135.419 110.292 135.419 109.671V103.977H135.423Z" fill="#121212"/>
<path d="M135.423 103.748H141.6V109.442C141.6 110.062 141.354 110.657 140.915 111.096C140.476 111.535 139.881 111.781 139.261 111.781H137.759C137.138 111.781 136.543 111.535 136.105 111.096C135.666 110.657 135.419 110.062 135.419 109.442V103.748H135.423Z" fill="#BE7C5E"/>
<path opacity="0.1" d="M135.433 104.624C137.426 105.362 139.618 105.362 141.611 104.624V103.866H135.433V104.624Z" fill="#121212"/>
<path d="M138.534 105.051C143.424 105.051 147.389 101.087 147.389 96.1973C147.389 91.3074 143.424 87.3434 138.534 87.3434C133.644 87.3434 129.68 91.3074 129.68 96.1973C129.68 101.087 133.644 105.051 138.534 105.051Z" fill="#BE7C5E"/>
<path d="M130.066 92.8358H146.954C146.954 92.8358 145.511 86.0155 139.129 86.4535C132.746 86.8915 130.066 92.8358 130.066 92.8358Z" fill="#333333"/>
<path d="M129.864 97.3653C130.319 97.3653 130.688 96.6743 130.688 95.8218C130.688 94.9694 130.319 94.2784 129.864 94.2784C129.409 94.2784 129.04 94.9694 129.04 95.8218C129.04 96.6743 129.409 97.3653 129.864 97.3653Z" fill="#BE7C5E"/>
<path d="M147.163 97.3653C147.618 97.3653 147.987 96.6743 147.987 95.8218C147.987 94.9694 147.618 94.2784 147.163 94.2784C146.708 94.2784 146.339 94.9694 146.339 95.8218C146.339 96.6743 146.708 97.3653 147.163 97.3653Z" fill="#BE7C5E"/>
<path opacity="0.1" d="M130.066 93.0617H146.954C146.954 93.0617 145.511 86.2414 139.129 86.6794C132.746 87.1174 130.066 93.0617 130.066 93.0617Z" fill="#121212"/>
<path d="M214.771 139.605H117.902V145.476H214.771V139.605Z" fill="#E0E0E0"/>
<path d="M214.771 154.281H117.902V160.153H214.771V154.281Z" fill="#E0E0E0"/>
<path d="M214.775 92.6411H164.871V98.5125H214.775V92.6411Z" fill="#E0E0E0"/>
<path d="M210.37 107.318H169.272V113.189H210.37V107.318Z" fill="#6EE06C"/>
<path d="M203.032 168.958H117.902V174.829H203.032V168.958Z" fill="#E0E0E0"/>
<path d="M191.288 183.635H117.902V189.506H191.288V183.635Z" fill="#E0E0E0"/>
<path d="M182.483 198.315H117.902V204.186H182.483V198.315Z" fill="#E0E0E0"/>
<path d="M200.094 212.991H117.902V218.862H200.094V212.991Z" fill="#E0E0E0"/>
<path d="M150.191 227.668H117.902V233.539H150.191V227.668Z" fill="#6EE06C"/>
<g opacity="0.5">
<path opacity="0.5" d="M226.685 260.003C242.888 260.003 256.022 246.869 256.022 230.668C256.022 214.466 242.888 201.332 226.685 201.332C210.483 201.332 197.348 214.466 197.348 230.668C197.348 246.869 210.483 260.003 226.685 260.003Z" fill="url(#paint6_linear)"/>
</g>
<path d="M226.685 258.276C241.933 258.276 254.295 245.915 254.295 230.668C254.295 215.42 241.933 203.06 226.685 203.06C211.437 203.06 199.076 215.42 199.076 230.668C199.076 245.915 211.437 258.276 226.685 258.276Z" fill="#69F0AE"/>
<path d="M214.702 226.983L225.055 236.473L239.722 214.907L244.901 219.221L225.055 245.101L210.388 228.711L214.702 226.983Z" fill="white"/>
</g>
<defs>
<linearGradient id="paint0_linear" x1="207.542" y1="198.429" x2="235.928" y2="10.2809" gradientUnits="userSpaceOnUse">
<stop stop-color="#808080" stop-opacity="0.25"/>
<stop offset="0.54" stop-color="#808080" stop-opacity="0.12"/>
<stop offset="1" stop-color="#808080" stop-opacity="0.1"/>
</linearGradient>
<linearGradient id="paint1_linear" x1="22962" y1="28821.2" x2="23626.9" y2="24414.3" gradientUnits="userSpaceOnUse">
<stop stop-color="#808080" stop-opacity="0.25"/>
<stop offset="0.54" stop-color="#808080" stop-opacity="0.12"/>
<stop offset="1" stop-color="#808080" stop-opacity="0.1"/>
</linearGradient>
<linearGradient id="paint2_linear" x1="76493.4" y1="62118.9" x2="59829.8" y2="-40992.1" gradientUnits="userSpaceOnUse">
<stop stop-color="#808080" stop-opacity="0.25"/>
<stop offset="0.54" stop-color="#808080" stop-opacity="0.12"/>
<stop offset="1" stop-color="#808080" stop-opacity="0.1"/>
</linearGradient>
<linearGradient id="paint3_linear" x1="15781.2" y1="-1554.23" x2="15021.8" y2="-6186.41" gradientUnits="userSpaceOnUse">
<stop stop-color="#808080" stop-opacity="0.25"/>
<stop offset="0.54" stop-color="#808080" stop-opacity="0.12"/>
<stop offset="1" stop-color="#808080" stop-opacity="0.1"/>
</linearGradient>
<linearGradient id="paint4_linear" x1="66302" y1="135695" x2="66302" y2="31542.7" gradientUnits="userSpaceOnUse">
<stop stop-color="#808080" stop-opacity="0.25"/>
<stop offset="0.54" stop-color="#808080" stop-opacity="0.12"/>
<stop offset="1" stop-color="#808080" stop-opacity="0.1"/>
</linearGradient>
<linearGradient id="paint5_linear" x1="20924.2" y1="17744.8" x2="20924.2" y2="12835.1" gradientUnits="userSpaceOnUse">
<stop stop-color="#808080" stop-opacity="0.25"/>
<stop offset="0.54" stop-color="#808080" stop-opacity="0.12"/>
<stop offset="1" stop-color="#808080" stop-opacity="0.1"/>
</linearGradient>
<linearGradient id="paint6_linear" x1="38457.3" y1="44084.2" x2="38457.3" y2="34182.2" gradientUnits="userSpaceOnUse">
<stop stop-color="#808080" stop-opacity="0.25"/>
<stop offset="0.54" stop-color="#808080" stop-opacity="0.12"/>
<stop offset="1" stop-color="#808080" stop-opacity="0.1"/>
</linearGradient>
<clipPath id="clip0">
<rect width="304" height="260" fill="white"/>
</clipPath>
</defs>
</svg>
