<svg width="1400" height="817" viewBox="0 0 1400 817" fill="none" xmlns="http://www.w3.org/2000/svg">
<rect y="-4" width="1400" height="823" fill="#FDFDFE"/>
<path fill-rule="evenodd" clip-rule="evenodd" d="M204.237 110.555C215.907 121.988 226.782 134.686 230.286 150.649C234.009 167.607 231.551 185.402 224.116 201.11C216.326 217.566 203.633 231.046 187.895 240.205C170.99 250.044 151.525 258.775 132.472 254.447C113.625 250.165 101.927 232.533 89.3997 217.828C77.482 203.84 62.4275 189.988 61.8965 171.606C61.3776 153.642 77.3634 140.552 86.7238 125.194C95.5784 110.665 99.842 91.7807 115.115 84.2842C130.463 76.7511 148.673 81.9182 165.055 86.7471C180.086 91.1781 193.047 99.5936 204.237 110.555Z" fill="#F0FCF0"/>
<path fill-rule="evenodd" clip-rule="evenodd" d="M1231.91 484.665C1253.12 481.479 1273.32 464.306 1293.36 471.936C1314.25 479.892 1330.92 501.25 1333.74 523.437C1336.46 544.926 1317.41 561.903 1307.18 580.996C1299.12 596.06 1293.23 611.983 1280.32 623.176C1266.47 635.181 1249.94 642.979 1231.91 646.259C1210.67 650.124 1184.5 658.272 1168.77 643.47C1152.76 628.399 1167.14 600.701 1161.04 579.567C1155.3 559.627 1129.82 545.095 1134.59 524.9C1139.33 504.889 1163.57 496.438 1182.56 488.584C1198.2 482.121 1215.19 487.178 1231.91 484.665Z" fill="#D7F7D7"/>
</svg>
