<svg width="1400" height="575" viewBox="0 0 1400 575" fill="none" xmlns="http://www.w3.org/2000/svg">
<rect width="1400" height="575" fill="#FDFDFE"/>
<path fill-rule="evenodd" clip-rule="evenodd" d="M1242.47 382.055C1257.47 381.062 1268.97 393.854 1281.88 401.514C1296.45 410.152 1317.21 413.632 1322.69 429.628C1328.16 445.619 1315.21 461.632 1307.66 476.76C1301.24 489.626 1293.11 500.838 1282.37 510.412C1270.44 521.045 1258.37 536.679 1242.47 534.853C1226.46 533.013 1220.49 512.965 1208.74 501.952C1199.02 492.845 1186.86 487.191 1179.68 475.984C1170.58 461.768 1156.37 445.425 1162.48 429.699C1168.65 413.821 1192.03 415.221 1206.69 406.492C1219.41 398.914 1227.69 383.033 1242.47 382.055Z" fill="#F5F5F5"/>
<path fill-rule="evenodd" clip-rule="evenodd" d="M137.993 96.2118C151.658 97.2103 163.522 104.527 174.646 112.577C185.825 120.667 198.239 129.095 201.895 142.456C205.496 155.618 199.665 169.345 193.504 181.507C188.097 192.183 178.156 198.722 169.323 206.756C159.149 216.009 151.434 229.262 137.993 231.995C123.478 234.947 107.151 231.361 95.8815 221.692C84.9045 212.273 83.2265 196.462 80.0705 182.296C77.2174 169.489 75.6375 156.707 78.5545 143.915C81.7068 130.092 86.2408 115.765 97.2583 106.922C108.506 97.8952 123.645 95.1634 137.993 96.2118Z" fill="#F5F5F5"/>
</svg>
