<svg width="50" height="50" viewBox="0 0 50 50" fill="none" xmlns="http://www.w3.org/2000/svg">
<path d="M44.7746 18.0027L38.6129 4.78901C38.5362 4.62476 38.3974 4.49769 38.227 4.43573C38.0566 4.37376 37.8686 4.38197 37.7043 4.45854L13.7613 15.6249C13.6799 15.6628 13.6068 15.7164 13.5462 15.7825C13.4855 15.8487 13.4385 15.9262 13.4078 16.0105C13.3771 16.0949 13.3633 16.1845 13.3673 16.2741C13.3712 16.3638 13.3928 16.4518 13.4309 16.5332L15.9219 21.875L15.8637 21.9019C14.7408 22.4235 13.8592 23.3538 13.3988 24.5031L11.4242 29.4105L4.78945 32.5031C4.70647 32.54 4.63166 32.593 4.56941 32.6591C4.50715 32.7252 4.45868 32.803 4.42684 32.8881C4.39499 32.9731 4.38041 33.0636 4.38394 33.1543C4.38747 33.2451 4.40904 33.3342 4.44739 33.4165C4.48574 33.4988 4.5401 33.5727 4.6073 33.6337C4.6745 33.6948 4.7532 33.7418 4.83879 33.7722C4.92438 33.8025 5.01515 33.8154 5.10581 33.8103C5.19646 33.8051 5.28518 33.782 5.36679 33.7421L7.85156 32.5851L12.9406 43.5023L11.2246 44.3023C11.1424 44.3397 11.0685 44.3931 11.0071 44.4592C10.9456 44.5254 10.8979 44.603 10.8666 44.6877C10.8354 44.7724 10.8212 44.8625 10.8249 44.9527C10.8287 45.0429 10.8502 45.1315 10.8884 45.2133C10.9265 45.2951 10.9805 45.3686 11.0472 45.4294C11.1139 45.4903 11.192 45.5373 11.277 45.5678C11.362 45.5983 11.4521 45.6117 11.5423 45.6071C11.6325 45.6026 11.7209 45.5802 11.8023 45.5414L17.9133 42.6925C18.0776 42.616 18.2047 42.4773 18.2668 42.3069C18.3288 42.1366 18.3207 41.9487 18.2441 41.7843L17.7301 40.6812L18.8043 40.1808C18.9079 40.1324 18.9977 40.0588 19.0656 39.9668L22.9609 34.6843C24.0275 33.2433 24.6199 31.5064 24.6562 29.714L24.6914 28.1226L44.4453 18.9113C44.5267 18.8734 44.5999 18.8198 44.6606 18.7537C44.7213 18.6875 44.7684 18.61 44.7991 18.5256C44.8298 18.4412 44.8436 18.3516 44.8397 18.2618C44.8358 18.1721 44.8142 18.0841 44.7762 18.0027H44.7746ZM14.1797 42.9246L9.08906 32.0074L11.6258 30.825L16.7148 41.7421L14.1797 42.9246ZM21.8594 33.873L18.0672 39.0148L17.1508 39.4421L12.7023 29.898L14.6676 25.0121C14.999 24.1849 15.6336 23.5155 16.4418 23.1402L16.4996 23.1128L19.593 29.7453C19.6527 29.8736 19.7508 29.9803 19.8737 30.0505C19.9967 30.1207 20.1384 30.1509 20.2793 30.1371C20.4202 30.1232 20.5533 30.0659 20.6602 29.9731C20.7671 29.8803 20.8426 29.7566 20.8762 29.6191L22.1195 24.5484C22.1688 24.346 22.2631 24.1573 22.3953 23.9962C22.5275 23.8352 22.6942 23.7061 22.8832 23.6183L23.4266 23.3652L23.2875 29.6839C23.257 31.1945 22.7579 32.6583 21.8594 33.873ZM19.9644 17.1874L24.2277 15.1996C24.1918 15.2847 24.1523 15.3675 24.1203 15.455C23.6394 16.7765 23.703 18.2349 24.2971 19.5095C24.8913 20.7841 25.9673 21.7705 27.2887 22.2519C27.3754 22.2835 27.4629 22.3078 27.5504 22.3343L24.7883 23.6234L24.7949 23.3339C24.7998 23.1083 24.7471 22.8852 24.6418 22.6856C24.5365 22.486 24.3821 22.3165 24.1932 22.1931C24.0042 22.0697 23.7869 21.9965 23.5618 21.9805C23.3367 21.9644 23.1112 22.0059 22.9066 22.1011L22.3059 22.3812C21.8103 22.612 21.395 22.9857 21.1133 23.4542L19.1871 19.3226C19.4832 19.0588 19.7092 18.7257 19.8449 18.353C19.9806 17.9804 20.0217 17.5799 19.9644 17.1874ZM38.241 17.3496L33.9797 19.3359C34.0152 19.2515 34.0543 19.1695 34.0859 19.0832C34.3242 18.4288 34.4312 17.7339 34.4009 17.0382C34.3705 16.3425 34.2035 15.6596 33.9092 15.0284C33.615 14.3973 33.1993 13.8303 32.6859 13.3598C32.1726 12.8893 31.5715 12.5245 30.9172 12.2863C30.8293 12.2542 30.7398 12.2308 30.6512 12.2039L34.9141 10.2148C35.1781 10.5109 35.5114 10.737 35.8843 10.8727C36.2571 11.0084 36.6577 11.0496 37.0504 10.9925L39.0187 15.2132C38.7231 15.4774 38.4975 15.8106 38.3619 16.1832C38.2264 16.5557 38.1853 16.956 38.2422 17.3484L38.241 17.3496ZM30.7422 20.846C29.7847 21.2904 28.6901 21.3371 27.6982 20.9759C26.7063 20.6148 25.898 19.8752 25.4504 18.9192C25.0028 17.9632 24.9523 16.8688 25.31 15.8757C25.6678 14.8826 26.4046 14.0717 27.359 13.6208C28.3135 13.1699 29.4077 13.1157 30.402 13.47C31.3964 13.8243 32.2098 14.5583 32.6639 15.5112C33.1181 16.4641 33.1761 17.5582 32.8252 18.5537C32.4743 19.5493 31.7431 20.3651 30.7918 20.8226L30.7422 20.846ZM24.7266 26.5988L24.7586 25.1457L31.3246 22.0835C31.332 22.0804 31.3398 22.0781 31.3469 22.0746C31.3539 22.071 31.3625 22.066 31.3707 22.0621L39.3516 18.3406C39.5159 18.2639 39.643 18.1251 39.7051 17.9548C39.7671 17.7844 39.759 17.5964 39.6824 17.432C39.5679 17.1861 39.5558 16.9049 39.6486 16.65C39.7414 16.3952 39.9316 16.1877 40.1773 16.073C40.2587 16.0351 40.3319 15.9815 40.3925 15.9153C40.4532 15.8491 40.5002 15.7716 40.5309 15.6872C40.5616 15.6028 40.5754 15.5132 40.5714 15.4235C40.5674 15.3338 40.5458 15.2458 40.5078 15.1644L38.0469 9.88471C37.9702 9.7204 37.8314 9.59324 37.6611 9.5312C37.4907 9.46916 37.3026 9.47731 37.1383 9.55385C37.0166 9.61066 36.8849 9.64293 36.7507 9.64882C36.6165 9.6547 36.4825 9.6341 36.3563 9.58817C36.2301 9.54225 36.1142 9.4719 36.0152 9.38116C35.9162 9.29042 35.836 9.18106 35.7793 9.05932C35.7414 8.97797 35.6878 8.90489 35.6216 8.84425C35.5555 8.78362 35.478 8.73661 35.3937 8.70592C35.3093 8.67523 35.2198 8.66146 35.1301 8.6654C35.0404 8.66933 34.9524 8.69089 34.8711 8.72885L18.8566 16.1945C18.7752 16.2324 18.7021 16.286 18.6414 16.3522C18.5808 16.4184 18.5337 16.4959 18.503 16.5803C18.4724 16.6647 18.4586 16.7543 18.4626 16.844C18.4665 16.9337 18.4881 17.0217 18.5262 17.1031C18.583 17.2247 18.6152 17.3564 18.6211 17.4906C18.627 17.6247 18.6064 17.7587 18.5605 17.8849C18.5145 18.011 18.4442 18.1269 18.3534 18.2259C18.2627 18.3249 18.1534 18.405 18.0316 18.4617C17.8673 18.5383 17.7402 18.6771 17.6781 18.8475C17.6161 19.0179 17.6242 19.2059 17.7008 19.3703L20.1617 24.65C20.2033 24.7387 20.2637 24.8174 20.3386 24.8807C20.4135 24.9439 20.5012 24.9902 20.5957 25.0164L20.0098 27.4074L17.45 21.914L14.9598 16.5742L37.6637 5.98823L43.2496 17.9625L24.7266 26.5988Z" fill="#6EE06C"/>
</svg>
