<svg width="50" height="50" viewBox="0 0 50 50" fill="none" xmlns="http://www.w3.org/2000/svg">
<path d="M44.9988 12.1596C44.9949 11.9927 44.9469 11.8297 44.8595 11.6874C44.7721 11.5451 44.6485 11.4285 44.5014 11.3495L25.4472 1.1122C25.3097 1.03854 25.156 1 25 1C24.844 1 24.6904 1.03854 24.5528 1.1122L5.49864 11.3517C5.35149 11.4306 5.22791 11.5472 5.14052 11.6895C5.05314 11.8319 5.00507 11.9948 5.00123 12.1618C4.99475 12.3913 4.62317 35.2661 24.454 49.3013C24.6137 49.414 24.8045 49.4746 25 49.4746C25.1955 49.4746 25.3863 49.414 25.546 49.3013C45.3741 35.2639 45.0053 12.3892 44.9988 12.1596ZM25 47.3634C8.20339 35.0905 6.97631 16.1692 6.8953 12.7472L25 3.01761L43.1047 12.7472C43.0237 16.1692 41.7966 35.0905 25 47.3634Z" fill="#6EE06C"/>
<path d="M24.5529 5.4037L9.35495 13.5703C9.19418 13.6568 9.06188 13.788 8.97401 13.9481C8.88613 14.1081 8.84643 14.2902 8.85969 14.4722C9.26854 20.0546 11.6012 34.1567 24.406 44.5225C24.5743 44.6583 24.784 44.7323 25.0001 44.7323C25.2163 44.7323 25.426 44.6583 25.5942 44.5225C38.3996 34.1529 40.7317 20.0567 41.14 14.4728C41.1533 14.2907 41.1136 14.1087 41.0257 13.9486C40.9378 13.7886 40.8055 13.6574 40.6448 13.5709L25.4473 5.4037C25.3098 5.33004 25.1562 5.2915 25.0001 5.2915C24.8441 5.2915 24.6905 5.33004 24.5529 5.4037ZM39.2044 14.9432C38.7005 20.5417 36.2809 33.0711 25.0001 42.5626C13.721 33.0722 11.3009 20.5423 10.7959 14.9432L25.0001 7.30966L39.2044 14.9432Z" fill="#6EE06C"/>
<path d="M16.5386 22.8506C16.5385 24.5242 17.0347 26.1602 17.9643 27.5517C18.894 28.9433 20.2155 30.0279 21.7616 30.6684C23.3078 31.309 25.0091 31.4766 26.6505 31.1502C28.2919 30.8237 29.7997 30.0179 30.9831 28.8346C32.1665 27.6512 32.9724 26.1435 33.299 24.5021C33.6255 22.8607 33.458 21.1594 32.8175 19.6132C32.1771 18.067 31.0926 16.7455 29.7011 15.8157C28.3096 14.8859 26.6736 14.3896 25.0001 14.3896C22.7568 14.3922 20.6062 15.2845 19.0199 16.8706C17.4337 18.4568 16.5413 20.6074 16.5386 22.8506ZM31.5713 22.8506C31.5714 24.1503 31.1861 25.4208 30.4641 26.5015C29.7421 27.5823 28.7159 28.4246 27.5152 28.922C26.3144 29.4195 24.9932 29.5497 23.7184 29.2962C22.4437 29.0427 21.2728 28.4169 20.3537 27.4979C19.4347 26.5789 18.8088 25.4081 18.5552 24.1333C18.3016 22.8586 18.4317 21.5374 18.929 20.3366C19.4264 19.1358 20.2686 18.1095 21.3493 17.3874C22.4299 16.6654 23.7004 16.2799 25.0001 16.2799C26.7422 16.2819 28.4123 16.9748 29.6442 18.2066C30.8761 19.4384 31.5691 21.1085 31.5713 22.8506Z" fill="#6EE06C"/>
<path d="M22.6069 22.6059C22.4252 22.4372 22.1845 22.3468 21.9367 22.354C21.6888 22.3611 21.4538 22.4654 21.2821 22.6443C21.1104 22.8232 21.0159 23.0624 21.019 23.3103C21.022 23.5582 21.1223 23.7949 21.2983 23.9696L23.3296 25.9182C23.5055 26.087 23.7398 26.1812 23.9836 26.1812H24.0311C24.1598 26.1748 24.2858 26.1421 24.4013 26.0852C24.5169 26.0282 24.6195 25.9483 24.703 25.8502L28.7671 21.0774C28.9285 20.8865 29.0077 20.6394 28.9873 20.3902C28.9668 20.141 28.8485 19.9101 28.6583 19.748C28.468 19.5858 28.2212 19.5057 27.9719 19.5251C27.7227 19.5445 27.4913 19.6618 27.3284 19.8514L23.9145 23.8589L22.6069 22.6059Z" fill="#6EE06C"/>
</svg>
