<svg width="50" height="50" viewBox="0 0 50 50" fill="none" xmlns="http://www.w3.org/2000/svg">
<g clip-path="url(#clip0)">
<path d="M49.3278 16.8898C49.0605 16.6227 48.7314 16.4257 48.3696 16.3163C48.0078 16.207 47.6246 16.1888 47.2541 16.2632C46.8836 16.3377 46.5372 16.5025 46.2457 16.7431C45.9542 16.9836 45.7267 17.2925 45.5833 17.6422L42.6368 24.8297L42.3072 24.4996C41.8024 23.9958 41.1183 23.7128 40.405 23.7128C39.6918 23.7128 39.0077 23.9958 38.5029 24.4996L36.2736 26.7293C35.3832 27.6173 34.2251 28.1872 32.9783 28.3508L32.9205 28.3582C31.7304 28.5362 30.6447 29.1381 29.8632 30.0531C29.0817 30.9681 28.657 32.1346 28.6674 33.3379V42.4145H26.8177C26.728 42.4144 26.639 42.4321 26.5561 42.4664C26.4731 42.5007 26.3977 42.5511 26.3343 42.6146C26.2708 42.6781 26.2204 42.7534 26.1861 42.8364C26.1518 42.9194 26.1341 43.0083 26.1342 43.0981V47.3617C26.1341 47.4515 26.1518 47.5404 26.1861 47.6234C26.2204 47.7064 26.2708 47.7817 26.3343 47.8452C26.3977 47.9087 26.4731 47.9591 26.5561 47.9934C26.639 48.0277 26.728 48.0454 26.8177 48.0453H39.1173C39.2986 48.0453 39.4725 47.9733 39.6007 47.8451C39.7289 47.7169 39.8009 47.543 39.8009 47.3617V43.0981C39.8009 42.9168 39.7289 42.7429 39.6007 42.6147C39.4725 42.4865 39.2986 42.4145 39.1173 42.4145H37.2681V36.4379L41.6138 34.7422C42.6718 34.3308 43.6323 33.7032 44.4341 32.8996L44.5247 32.8086C45.4391 31.8925 46.1248 30.7739 46.5263 29.5434L49.922 19.107C49.9275 19.091 49.9318 19.075 49.9357 19.0586C50.0284 18.6753 50.0211 18.2746 49.9147 17.8949C49.8083 17.5152 49.6062 17.1691 49.3278 16.8898ZM38.4337 46.6797H27.5002V43.7832H38.4337V46.6797ZM48.6111 18.7109L45.2263 29.1203C44.8915 30.1458 44.3201 31.0781 43.5583 31.8418L43.4673 31.9324C42.7992 32.6022 41.9987 33.1252 41.1169 33.468L36.3357 35.334C36.2076 35.3841 36.0976 35.4717 36.02 35.5853C35.9425 35.6988 35.901 35.8332 35.9009 35.9707V42.416H30.0345V33.3379C30.0252 32.4595 30.3348 31.6075 30.906 30.9401C31.4772 30.2726 32.2711 29.8351 33.1404 29.7086C34.692 29.5078 36.1338 28.8002 37.2419 27.6957L39.4712 25.4664C39.7232 25.2259 40.0582 25.0917 40.4066 25.0917C40.7549 25.0917 41.0899 25.2259 41.3419 25.4664L41.915 26.0395L36.9267 31.0266C36.8598 31.0893 36.8062 31.1648 36.769 31.2486C36.7319 31.3324 36.712 31.4228 36.7105 31.5145C36.709 31.6062 36.726 31.6972 36.7605 31.7822C36.7949 31.8672 36.8461 31.9444 36.9109 32.0092C36.9758 32.074 37.053 32.125 37.1381 32.1594C37.2231 32.1937 37.3141 32.2106 37.4058 32.209C37.4975 32.2074 37.5879 32.1874 37.6717 32.1502C37.7555 32.1129 37.8309 32.0592 37.8935 31.9922L43.3622 26.5234C43.3775 26.5086 43.3884 26.491 43.4013 26.475C43.4142 26.459 43.4251 26.4477 43.4357 26.4324C43.4649 26.3922 43.4894 26.3489 43.5087 26.3031V26.2996V26.2969L46.8435 18.1621C46.9014 18.0208 46.9934 17.8961 47.1111 17.7989C47.2289 17.7017 47.3688 17.6351 47.5185 17.605C47.6682 17.575 47.8231 17.5824 47.9692 17.6265C48.1154 17.6707 48.2484 17.7503 48.3564 17.8582C48.4666 17.9678 48.5476 18.1033 48.5921 18.2522C48.6366 18.4011 48.6431 18.5588 48.6111 18.7109Z" fill="#6EE06C"/>
<path d="M23.1825 42.4145H21.3329V33.3379C21.343 32.1349 20.9182 30.9688 20.1368 30.054C19.3554 29.1393 18.27 28.5375 17.0802 28.3594L17.0329 28.3532C15.7822 28.1911 14.62 27.6207 13.7267 26.7305L11.4974 24.5C10.9926 23.9962 10.3085 23.7132 9.59523 23.7132C8.88199 23.7132 8.19789 23.9962 7.69308 24.5L7.36339 24.8301L4.41691 17.6426C4.1976 17.1067 3.78369 16.6735 3.25824 16.43C2.7328 16.1866 2.13472 16.1509 1.58406 16.3302C1.0334 16.5094 0.570916 16.8903 0.289438 17.3964C0.00795964 17.9025 -0.0716758 18.4963 0.0665165 19.0586C0.0704227 19.0751 0.0747196 19.0911 0.0801883 19.1071L3.47394 29.5434C3.87541 30.7739 4.56112 31.8925 5.4755 32.8086L5.56613 32.8996C6.36772 33.7032 7.32816 34.3306 8.38605 34.7418L12.7321 36.4379V42.4145H10.8829C10.7016 42.4145 10.5277 42.4865 10.3995 42.6147C10.2713 42.7429 10.1993 42.9168 10.1993 43.0981V47.3617C10.1991 47.4516 10.2167 47.5407 10.2509 47.6238C10.2852 47.7069 10.3355 47.7825 10.399 47.8461C10.4625 47.9098 10.5379 47.9603 10.621 47.9947C10.704 48.0292 10.793 48.0469 10.8829 48.0469H23.1825C23.3638 48.0469 23.5377 47.9749 23.6659 47.8467C23.7941 47.7185 23.8661 47.5446 23.8661 47.3633V43.0981C23.8661 42.9168 23.7941 42.7429 23.6659 42.6147C23.5377 42.4865 23.3638 42.4145 23.1825 42.4145ZM13.6642 35.3344L8.88292 33.468C8.00131 33.1254 7.20091 32.6025 6.53292 31.9329L6.44191 31.8422C5.68011 31.0785 5.10872 30.1462 4.77394 29.1207L1.38917 18.711C1.35645 18.5589 1.36232 18.4011 1.40627 18.2518C1.45021 18.1026 1.53082 17.9668 1.64074 17.8567C1.74872 17.7487 1.88173 17.669 2.02793 17.6248C2.17413 17.5806 2.32899 17.5733 2.47873 17.6034C2.62847 17.6335 2.76844 17.7002 2.88619 17.7975C3.00393 17.8947 3.0958 18.0196 3.15363 18.161L6.48839 26.2954V26.2981V26.3016C6.50774 26.3473 6.53225 26.3907 6.56144 26.4309C6.57199 26.4461 6.58409 26.459 6.59581 26.4735C6.60753 26.4879 6.62042 26.5071 6.63488 26.5219L12.1036 31.9907C12.2325 32.1152 12.4052 32.1842 12.5844 32.1826C12.7637 32.1811 12.9351 32.1093 13.0619 31.9825C13.1887 31.8558 13.2606 31.6844 13.2622 31.5051C13.2638 31.3259 13.1949 31.1532 13.0704 31.0243L8.08605 26.0395L8.65909 25.4665C8.9111 25.2259 9.24608 25.0917 9.59445 25.0917C9.94282 25.0917 10.2778 25.2259 10.5298 25.4665L12.7599 27.6954C13.8779 28.807 15.333 29.5164 16.8974 29.7125C17.7597 29.8457 18.545 30.2858 19.1087 30.9518C19.6725 31.6179 19.9768 32.465 19.9657 33.3375V42.4141H14.0993V35.9688C14.0988 35.8316 14.057 35.6978 13.9794 35.5846C13.9018 35.4715 13.792 35.3843 13.6642 35.3344ZM22.5001 46.6797H11.5665V43.7832H22.5001V46.6797Z" fill="#6EE06C"/>
<path d="M36.67 13.6246C36.67 11.3165 35.9856 9.06029 34.7033 7.14118C33.421 5.22207 31.5984 3.72631 29.466 2.84304C27.3336 1.95977 24.9872 1.72866 22.7234 2.17895C20.4597 2.62924 18.3803 3.74069 16.7482 5.37276C15.1162 7.00483 14.0047 9.08421 13.5544 11.348C13.1042 13.6117 13.3353 15.9581 14.2185 18.0905C15.1018 20.2229 16.5976 22.0455 18.5167 23.3278C20.4358 24.6101 22.692 25.2946 25.0001 25.2946C28.0941 25.291 31.0604 24.0604 33.2481 21.8726C35.4359 19.6849 36.6665 16.7186 36.67 13.6246ZM25.0001 23.9274C22.9624 23.9274 20.9705 23.3231 19.2762 22.1911C17.582 21.059 16.2614 19.4499 15.4816 17.5673C14.7019 15.6847 14.4978 13.6132 14.8954 11.6147C15.2929 9.61614 16.2741 7.78037 17.715 6.33951C19.1559 4.89864 20.9916 3.9174 22.9902 3.51987C24.9887 3.12234 27.0602 3.32636 28.9428 4.10615C30.8254 4.88594 32.4345 6.20647 33.5665 7.90075C34.6986 9.59502 35.3029 11.587 35.3029 13.6246C35.2998 16.3561 34.2133 18.9749 32.2818 20.9063C30.3504 22.8378 27.7316 23.9243 25.0001 23.9274Z" fill="#6EE06C"/>
<path d="M24.1455 9.375H28.5888C28.7701 9.375 28.944 9.30298 29.0722 9.17478C29.2004 9.04658 29.2724 8.87271 29.2724 8.69141C29.2724 8.51011 29.2004 8.33623 29.0722 8.20803C28.944 8.07983 28.7701 8.00781 28.5888 8.00781H25.6838V6.25C25.6838 6.0687 25.6118 5.89482 25.4836 5.76663C25.3554 5.63843 25.1815 5.56641 25.0002 5.56641C24.8189 5.56641 24.645 5.63843 24.5168 5.76663C24.3886 5.89482 24.3166 6.0687 24.3166 6.25V8.00781H24.1455C23.2393 8.00885 22.3705 8.36928 21.7298 9.01005C21.089 9.65082 20.7286 10.5196 20.7275 11.4258V13.623C20.7275 13.8043 20.7996 13.9782 20.9278 14.1064C21.056 14.2346 21.2298 14.3066 21.4111 14.3066H27.9052V15.8203C27.9046 16.364 27.6884 16.8853 27.3039 17.2697C26.9194 17.6542 26.3982 17.8705 25.8545 17.8711H21.4111C21.2298 17.8711 21.056 17.9431 20.9278 18.0713C20.7996 18.1995 20.7275 18.3734 20.7275 18.5547C20.7275 18.736 20.7996 18.9099 20.9278 19.0381C21.056 19.1663 21.2298 19.2383 21.4111 19.2383H24.3166V20.9961C24.3166 21.1774 24.3886 21.3513 24.5168 21.4795C24.645 21.6077 24.8189 21.6797 25.0002 21.6797C25.1815 21.6797 25.3554 21.6077 25.4836 21.4795C25.6118 21.3513 25.6838 21.1774 25.6838 20.9961V19.2383H25.8545C26.7607 19.2374 27.6295 18.8769 28.2703 18.2362C28.9111 17.5954 29.2715 16.7265 29.2724 15.8203V13.6246C29.2725 13.5348 29.2548 13.4459 29.2205 13.3629C29.1862 13.28 29.1358 13.2046 29.0723 13.1411C29.0088 13.0776 28.9335 13.0273 28.8505 12.9929C28.7675 12.9586 28.6786 12.941 28.5888 12.941H22.0947V11.4273C22.0949 10.8834 22.311 10.3617 22.6955 9.9769C23.08 9.5921 23.6015 9.37562 24.1455 9.375Z" fill="#6EE06C"/>
</g>
<defs>
<clipPath id="clip0">
<rect width="50" height="50" fill="white"/>
</clipPath>
</defs>
</svg>
